<svg width="1200" height="630" viewBox="0 0 1200 630" fill="none" xmlns="http://www.w3.org/2000/svg">
  <defs>
    <linearGradient id="bg" x1="0" y1="0" x2="1200" y2="630" gradientUnits="userSpaceOnUse">
      <stop stop-color="#07060A"/>
      <stop offset="1" stop-color="#14111C"/>
    </linearGradient>
    <radialGradient id="glow" cx="0" cy="0" r="1" gradientUnits="userSpaceOnUse" gradientTransform="translate(845 194) rotate(129.806) scale(299.273 370.818)">
      <stop stop-color="#7C6CFF" stop-opacity="0.45"/>
      <stop offset="1" stop-color="#7C6CFF" stop-opacity="0"/>
    </radialGradient>
    <radialGradient id="capsuleGlow" cx="0" cy="0" r="1" gradientUnits="userSpaceOnUse" gradientTransform="translate(850 315) rotate(90) scale(200 120)">
      <stop stop-color="#7C6CFF" stop-opacity="0.35"/>
      <stop offset="1" stop-color="#7C6CFF" stop-opacity="0"/>
    </radialGradient>
  </defs>

  <rect width="1200" height="630" fill="url(#bg)"/>
  <rect width="1200" height="630" fill="url(#glow)"/>

  <g opacity="0.18">
    <path d="M0 90H1200" stroke="white"/>
    <path d="M0 180H1200" stroke="white"/>
    <path d="M0 270H1200" stroke="white"/>
    <path d="M0 360H1200" stroke="white"/>
    <path d="M0 450H1200" stroke="white"/>
    <path d="M0 540H1200" stroke="white"/>
    <path d="M120 0V630" stroke="white"/>
    <path d="M240 0V630" stroke="white"/>
    <path d="M360 0V630" stroke="white"/>
    <path d="M480 0V630" stroke="white"/>
    <path d="M600 0V630" stroke="white"/>
    <path d="M720 0V630" stroke="white"/>
    <path d="M840 0V630" stroke="white"/>
    <path d="M960 0V630" stroke="white"/>
    <path d="M1080 0V630" stroke="white"/>
  </g>

  <text x="92" y="126" fill="#B5AEC8" font-family="monospace" font-size="20" letter-spacing="4">SEALED ARCHIVE ON BASE</text>
  <text x="92" y="240" fill="white" font-family="monospace" font-size="54" font-weight="700">EchoCapsul</text>
  <text x="92" y="318" fill="white" font-family="monospace" font-size="28">Seal the box.</text>
  <text x="92" y="360" fill="white" font-family="monospace" font-size="28">Let the capsule speak later.</text>
  <text x="92" y="442" fill="#B5AEC8" font-family="monospace" font-size="22">Mystery Box → Reveal → The Furnace → The Inner Archive</text>
  <text x="92" y="514" fill="#7C6CFF" font-family="monospace" font-size="22">Mint starts at 0.0001 ETH on Base</text>

  <ellipse cx="855" cy="315" rx="145" ry="220" fill="url(#capsuleGlow)"/>
  <rect x="765" y="118" width="180" height="394" rx="90" fill="#171320" stroke="#5449B7" stroke-width="2"/>
  <rect x="790" y="144" width="130" height="342" rx="65" fill="#0B0910" stroke="#2F2750"/>
  <path d="M765 315H945" stroke="#7C6CFF" stroke-opacity="0.7" stroke-dasharray="8 8"/>
  <circle cx="855" cy="315" r="18" fill="#1E1834" stroke="#7C6CFF" stroke-width="2"/>
  <circle cx="855" cy="315" r="7" fill="#7C6CFF" fill-opacity="0.5"/>
  <rect x="806" y="94" width="98" height="26" rx="13" fill="#1A1530" stroke="#5449B7"/>
  <rect x="806" y="510" width="98" height="26" rx="13" fill="#1A1530" stroke="#5449B7"/>
  <text x="855" y="392" text-anchor="middle" fill="#7C6CFF" font-family="monospace" font-size="78" opacity="0.6">?</text>
</svg>
